<svg xmlns="http://www.w3.org/2000/svg" version="1.1" xmlns:xlink="http://www.w3.org/1999/xlink" xmlns:svgjs="http://svgjs.dev/svgjs" viewBox="0 0 800 800" opacity="0.20"><g stroke-width="0.5" stroke="hsla(0, 0%, 100%, 1.00)" fill="none" stroke-linecap="round" transform="matrix(1,0,0,1,-5,-65.75232696533203)"><path d="M10,10C35.69444444444444,23.541666666666668,79.86111111111111,81.66666666666667,133.33333333333334,75C186.80555555555557,68.33333333333333,211.11111111111114,-10.541666666666668,266.6666666666667,-22C322.22222222222223,-33.45833333333333,344.44444444444446,24.583333333333332,400,20C455.55555555555554,15.416666666666668,477.7777777777778,-45.458333333333336,533.3333333333334,-44C588.8888888888889,-42.541666666666664,611.1111111111112,22.416666666666668,666.6666666666667,27C722.2222222222223,31.583333333333332,772.2222222222223,-11.791666666666668,800,-22"></path><path d="M10,10C35.69444444444444,23.541666666666668,79.86111111111111,81.66666666666667,133.33333333333334,75C186.80555555555557,68.33333333333333,211.11111111111114,-10.541666666666668,266.6666666666667,-22C322.22222222222223,-33.45833333333333,344.44444444444446,24.583333333333332,400,20C455.55555555555554,15.416666666666668,477.7777777777778,-45.458333333333336,533.3333333333334,-44C588.8888888888889,-42.541666666666664,611.1111111111112,22.416666666666668,666.6666666666667,27C722.2222222222223,31.583333333333332,772.2222222222223,-11.791666666666668,800,-22" transform="matrix(1,0,0,1,0,900)"></path><path d="M10,10C35.69444444444444,23.541666666666668,79.86111111111111,81.66666666666667,133.33333333333334,75C186.80555555555557,68.33333333333333,211.11111111111114,-10.541666666666668,266.6666666666667,-22C322.22222222222223,-33.45833333333333,344.44444444444446,24.583333333333332,400,20C455.55555555555554,15.416666666666668,477.7777777777778,-45.458333333333336,533.3333333333334,-44C588.8888888888889,-42.541666666666664,611.1111111111112,22.416666666666668,666.6666666666667,27C722.2222222222223,31.583333333333332,772.2222222222223,-11.791666666666668,800,-22" transform="matrix(1,0,0,1,0,750)"></path><path d="M10,10C35.69444444444444,23.541666666666668,79.86111111111111,81.66666666666667,133.33333333333334,75C186.80555555555557,68.33333333333333,211.11111111111114,-10.541666666666668,266.6666666666667,-22C322.22222222222223,-33.45833333333333,344.44444444444446,24.583333333333332,400,20C455.55555555555554,15.416666666666668,477.7777777777778,-45.458333333333336,533.3333333333334,-44C588.8888888888889,-42.541666666666664,611.1111111111112,22.416666666666668,666.6666666666667,27C722.2222222222223,31.583333333333332,772.2222222222223,-11.791666666666668,800,-22" transform="matrix(1,0,0,1,0,600)"></path><path d="M10,10C35.69444444444444,23.541666666666668,79.86111111111111,81.66666666666667,133.33333333333334,75C186.80555555555557,68.33333333333333,211.11111111111114,-10.541666666666668,266.6666666666667,-22C322.22222222222223,-33.45833333333333,344.44444444444446,24.583333333333332,400,20C455.55555555555554,15.416666666666668,477.7777777777778,-45.458333333333336,533.3333333333334,-44C588.8888888888889,-42.541666666666664,611.1111111111112,22.416666666666668,666.6666666666667,27C722.2222222222223,31.583333333333332,772.2222222222223,-11.791666666666668,800,-22" transform="matrix(1,0,0,1,0,450)"></path><path d="M10,10C35.69444444444444,23.541666666666668,79.86111111111111,81.66666666666667,133.33333333333334,75C186.80555555555557,68.33333333333333,211.11111111111114,-10.541666666666668,266.6666666666667,-22C322.22222222222223,-33.45833333333333,344.44444444444446,24.583333333333332,400,20C455.55555555555554,15.416666666666668,477.7777777777778,-45.458333333333336,533.3333333333334,-44C588.8888888888889,-42.541666666666664,611.1111111111112,22.416666666666668,666.6666666666667,27C722.2222222222223,31.583333333333332,772.2222222222223,-11.791666666666668,800,-22" transform="matrix(1,0,0,1,0,300)"></path><path d="M10,10C35.69444444444444,23.541666666666668,79.86111111111111,81.66666666666667,133.33333333333334,75C186.80555555555557,68.33333333333333,211.11111111111114,-10.541666666666668,266.6666666666667,-22C322.22222222222223,-33.45833333333333,344.44444444444446,24.583333333333332,400,20C455.55555555555554,15.416666666666668,477.7777777777778,-45.458333333333336,533.3333333333334,-44C588.8888888888889,-42.541666666666664,611.1111111111112,22.416666666666668,666.6666666666667,27C722.2222222222223,31.583333333333332,772.2222222222223,-11.791666666666668,800,-22" transform="matrix(1,0,0,1,0,150)"></path></g></svg>