<svg xmlns="http://www.w3.org/2000/svg" version="1.1" xmlns:xlink="http://www.w3.org/1999/xlink" xmlns:svgjs="http://svgjs.dev/svgjs" viewBox="0 0 800 800" opacity="0.28"><g stroke-width="0.5" stroke="hsla(0, 0%, 100%, 1.00)" fill="none" stroke-linecap="round" transform="matrix(1,0,0,1,-5,6.018138885498047)"><path d="M10,10C21.805555555555557,15.208333333333334,40.97222222222223,41.875,66.66666666666667,35C92.36111111111111,28.125,105.55555555555557,-20.708333333333332,133.33333333333334,-23C161.11111111111111,-25.291666666666668,172.22222222222223,23.583333333333332,200,24C227.77777777777777,24.416666666666668,238.8888888888889,-21.833333333333332,266.6666666666667,-21C294.44444444444446,-20.166666666666668,305.5555555555556,23.208333333333332,333.33333333333337,28C361.11111111111114,32.791666666666664,372.22222222222223,1.5833333333333335,400,2C427.77777777777777,2.4166666666666665,438.8888888888889,31.25,466.6666666666667,30C494.44444444444446,28.75,505.5555555555556,-4.416666666666667,533.3333333333334,-4C561.1111111111111,-3.5833333333333335,572.2222222222222,31.375,600,32C627.7777777777778,32.625,638.8888888888889,-4.958333333333333,666.6666666666667,-1C694.4444444444446,2.958333333333333,705.5555555555557,49.541666666666664,733.3333333333334,51C761.1111111111111,52.458333333333336,786.1111111111111,15.375,800,6"></path><path d="M10,10C21.805555555555557,15.208333333333334,40.97222222222223,41.875,66.66666666666667,35C92.36111111111111,28.125,105.55555555555557,-20.708333333333332,133.33333333333334,-23C161.11111111111111,-25.291666666666668,172.22222222222223,23.583333333333332,200,24C227.77777777777777,24.416666666666668,238.8888888888889,-21.833333333333332,266.6666666666667,-21C294.44444444444446,-20.166666666666668,305.5555555555556,23.208333333333332,333.33333333333337,28C361.11111111111114,32.791666666666664,372.22222222222223,1.5833333333333335,400,2C427.77777777777777,2.4166666666666665,438.8888888888889,31.25,466.6666666666667,30C494.44444444444446,28.75,505.5555555555556,-4.416666666666667,533.3333333333334,-4C561.1111111111111,-3.5833333333333335,572.2222222222222,31.375,600,32C627.7777777777778,32.625,638.8888888888889,-4.958333333333333,666.6666666666667,-1C694.4444444444446,2.958333333333333,705.5555555555557,49.541666666666664,733.3333333333334,51C761.1111111111111,52.458333333333336,786.1111111111111,15.375,800,6" transform="matrix(1,0,0,1,0,760)"></path><path d="M10,10C21.805555555555557,15.208333333333334,40.97222222222223,41.875,66.66666666666667,35C92.36111111111111,28.125,105.55555555555557,-20.708333333333332,133.33333333333334,-23C161.11111111111111,-25.291666666666668,172.22222222222223,23.583333333333332,200,24C227.77777777777777,24.416666666666668,238.8888888888889,-21.833333333333332,266.6666666666667,-21C294.44444444444446,-20.166666666666668,305.5555555555556,23.208333333333332,333.33333333333337,28C361.11111111111114,32.791666666666664,372.22222222222223,1.5833333333333335,400,2C427.77777777777777,2.4166666666666665,438.8888888888889,31.25,466.6666666666667,30C494.44444444444446,28.75,505.5555555555556,-4.416666666666667,533.3333333333334,-4C561.1111111111111,-3.5833333333333335,572.2222222222222,31.375,600,32C627.7777777777778,32.625,638.8888888888889,-4.958333333333333,666.6666666666667,-1C694.4444444444446,2.958333333333333,705.5555555555557,49.541666666666664,733.3333333333334,51C761.1111111111111,52.458333333333336,786.1111111111111,15.375,800,6" transform="matrix(1,0,0,1,0,684)"></path><path d="M10,10C21.805555555555557,15.208333333333334,40.97222222222223,41.875,66.66666666666667,35C92.36111111111111,28.125,105.55555555555557,-20.708333333333332,133.33333333333334,-23C161.11111111111111,-25.291666666666668,172.22222222222223,23.583333333333332,200,24C227.77777777777777,24.416666666666668,238.8888888888889,-21.833333333333332,266.6666666666667,-21C294.44444444444446,-20.166666666666668,305.5555555555556,23.208333333333332,333.33333333333337,28C361.11111111111114,32.791666666666664,372.22222222222223,1.5833333333333335,400,2C427.77777777777777,2.4166666666666665,438.8888888888889,31.25,466.6666666666667,30C494.44444444444446,28.75,505.5555555555556,-4.416666666666667,533.3333333333334,-4C561.1111111111111,-3.5833333333333335,572.2222222222222,31.375,600,32C627.7777777777778,32.625,638.8888888888889,-4.958333333333333,666.6666666666667,-1C694.4444444444446,2.958333333333333,705.5555555555557,49.541666666666664,733.3333333333334,51C761.1111111111111,52.458333333333336,786.1111111111111,15.375,800,6" transform="matrix(1,0,0,1,0,608)"></path><path d="M10,10C21.805555555555557,15.208333333333334,40.97222222222223,41.875,66.66666666666667,35C92.36111111111111,28.125,105.55555555555557,-20.708333333333332,133.33333333333334,-23C161.11111111111111,-25.291666666666668,172.22222222222223,23.583333333333332,200,24C227.77777777777777,24.416666666666668,238.8888888888889,-21.833333333333332,266.6666666666667,-21C294.44444444444446,-20.166666666666668,305.5555555555556,23.208333333333332,333.33333333333337,28C361.11111111111114,32.791666666666664,372.22222222222223,1.5833333333333335,400,2C427.77777777777777,2.4166666666666665,438.8888888888889,31.25,466.6666666666667,30C494.44444444444446,28.75,505.5555555555556,-4.416666666666667,533.3333333333334,-4C561.1111111111111,-3.5833333333333335,572.2222222222222,31.375,600,32C627.7777777777778,32.625,638.8888888888889,-4.958333333333333,666.6666666666667,-1C694.4444444444446,2.958333333333333,705.5555555555557,49.541666666666664,733.3333333333334,51C761.1111111111111,52.458333333333336,786.1111111111111,15.375,800,6" transform="matrix(1,0,0,1,0,532)"></path><path d="M10,10C21.805555555555557,15.208333333333334,40.97222222222223,41.875,66.66666666666667,35C92.36111111111111,28.125,105.55555555555557,-20.708333333333332,133.33333333333334,-23C161.11111111111111,-25.291666666666668,172.22222222222223,23.583333333333332,200,24C227.77777777777777,24.416666666666668,238.8888888888889,-21.833333333333332,266.6666666666667,-21C294.44444444444446,-20.166666666666668,305.5555555555556,23.208333333333332,333.33333333333337,28C361.11111111111114,32.791666666666664,372.22222222222223,1.5833333333333335,400,2C427.77777777777777,2.4166666666666665,438.8888888888889,31.25,466.6666666666667,30C494.44444444444446,28.75,505.5555555555556,-4.416666666666667,533.3333333333334,-4C561.1111111111111,-3.5833333333333335,572.2222222222222,31.375,600,32C627.7777777777778,32.625,638.8888888888889,-4.958333333333333,666.6666666666667,-1C694.4444444444446,2.958333333333333,705.5555555555557,49.541666666666664,733.3333333333334,51C761.1111111111111,52.458333333333336,786.1111111111111,15.375,800,6" transform="matrix(1,0,0,1,0,456)"></path><path d="M10,10C21.805555555555557,15.208333333333334,40.97222222222223,41.875,66.66666666666667,35C92.36111111111111,28.125,105.55555555555557,-20.708333333333332,133.33333333333334,-23C161.11111111111111,-25.291666666666668,172.22222222222223,23.583333333333332,200,24C227.77777777777777,24.416666666666668,238.8888888888889,-21.833333333333332,266.6666666666667,-21C294.44444444444446,-20.166666666666668,305.5555555555556,23.208333333333332,333.33333333333337,28C361.11111111111114,32.791666666666664,372.22222222222223,1.5833333333333335,400,2C427.77777777777777,2.4166666666666665,438.8888888888889,31.25,466.6666666666667,30C494.44444444444446,28.75,505.5555555555556,-4.416666666666667,533.3333333333334,-4C561.1111111111111,-3.5833333333333335,572.2222222222222,31.375,600,32C627.7777777777778,32.625,638.8888888888889,-4.958333333333333,666.6666666666667,-1C694.4444444444446,2.958333333333333,705.5555555555557,49.541666666666664,733.3333333333334,51C761.1111111111111,52.458333333333336,786.1111111111111,15.375,800,6" transform="matrix(1,0,0,1,0,380)"></path><path d="M10,10C21.805555555555557,15.208333333333334,40.97222222222223,41.875,66.66666666666667,35C92.36111111111111,28.125,105.55555555555557,-20.708333333333332,133.33333333333334,-23C161.11111111111111,-25.291666666666668,172.22222222222223,23.583333333333332,200,24C227.77777777777777,24.416666666666668,238.8888888888889,-21.833333333333332,266.6666666666667,-21C294.44444444444446,-20.166666666666668,305.5555555555556,23.208333333333332,333.33333333333337,28C361.11111111111114,32.791666666666664,372.22222222222223,1.5833333333333335,400,2C427.77777777777777,2.4166666666666665,438.8888888888889,31.25,466.6666666666667,30C494.44444444444446,28.75,505.5555555555556,-4.416666666666667,533.3333333333334,-4C561.1111111111111,-3.5833333333333335,572.2222222222222,31.375,600,32C627.7777777777778,32.625,638.8888888888889,-4.958333333333333,666.6666666666667,-1C694.4444444444446,2.958333333333333,705.5555555555557,49.541666666666664,733.3333333333334,51C761.1111111111111,52.458333333333336,786.1111111111111,15.375,800,6" transform="matrix(1,0,0,1,0,304)"></path><path d="M10,10C21.805555555555557,15.208333333333334,40.97222222222223,41.875,66.66666666666667,35C92.36111111111111,28.125,105.55555555555557,-20.708333333333332,133.33333333333334,-23C161.11111111111111,-25.291666666666668,172.22222222222223,23.583333333333332,200,24C227.77777777777777,24.416666666666668,238.8888888888889,-21.833333333333332,266.6666666666667,-21C294.44444444444446,-20.166666666666668,305.5555555555556,23.208333333333332,333.33333333333337,28C361.11111111111114,32.791666666666664,372.22222222222223,1.5833333333333335,400,2C427.77777777777777,2.4166666666666665,438.8888888888889,31.25,466.6666666666667,30C494.44444444444446,28.75,505.5555555555556,-4.416666666666667,533.3333333333334,-4C561.1111111111111,-3.5833333333333335,572.2222222222222,31.375,600,32C627.7777777777778,32.625,638.8888888888889,-4.958333333333333,666.6666666666667,-1C694.4444444444446,2.958333333333333,705.5555555555557,49.541666666666664,733.3333333333334,51C761.1111111111111,52.458333333333336,786.1111111111111,15.375,800,6" transform="matrix(1,0,0,1,0,228)"></path><path d="M10,10C21.805555555555557,15.208333333333334,40.97222222222223,41.875,66.66666666666667,35C92.36111111111111,28.125,105.55555555555557,-20.708333333333332,133.33333333333334,-23C161.11111111111111,-25.291666666666668,172.22222222222223,23.583333333333332,200,24C227.77777777777777,24.416666666666668,238.8888888888889,-21.833333333333332,266.6666666666667,-21C294.44444444444446,-20.166666666666668,305.5555555555556,23.208333333333332,333.33333333333337,28C361.11111111111114,32.791666666666664,372.22222222222223,1.5833333333333335,400,2C427.77777777777777,2.4166666666666665,438.8888888888889,31.25,466.6666666666667,30C494.44444444444446,28.75,505.5555555555556,-4.416666666666667,533.3333333333334,-4C561.1111111111111,-3.5833333333333335,572.2222222222222,31.375,600,32C627.7777777777778,32.625,638.8888888888889,-4.958333333333333,666.6666666666667,-1C694.4444444444446,2.958333333333333,705.5555555555557,49.541666666666664,733.3333333333334,51C761.1111111111111,52.458333333333336,786.1111111111111,15.375,800,6" transform="matrix(1,0,0,1,0,152)"></path><path d="M10,10C21.805555555555557,15.208333333333334,40.97222222222223,41.875,66.66666666666667,35C92.36111111111111,28.125,105.55555555555557,-20.708333333333332,133.33333333333334,-23C161.11111111111111,-25.291666666666668,172.22222222222223,23.583333333333332,200,24C227.77777777777777,24.416666666666668,238.8888888888889,-21.833333333333332,266.6666666666667,-21C294.44444444444446,-20.166666666666668,305.5555555555556,23.208333333333332,333.33333333333337,28C361.11111111111114,32.791666666666664,372.22222222222223,1.5833333333333335,400,2C427.77777777777777,2.4166666666666665,438.8888888888889,31.25,466.6666666666667,30C494.44444444444446,28.75,505.5555555555556,-4.416666666666667,533.3333333333334,-4C561.1111111111111,-3.5833333333333335,572.2222222222222,31.375,600,32C627.7777777777778,32.625,638.8888888888889,-4.958333333333333,666.6666666666667,-1C694.4444444444446,2.958333333333333,705.5555555555557,49.541666666666664,733.3333333333334,51C761.1111111111111,52.458333333333336,786.1111111111111,15.375,800,6" transform="matrix(1,0,0,1,0,76)"></path></g></svg>